{"title":"Locked Down-AC3-XviD-DVDRip[Eng]2010 2Lions-Team","uid":5949011,"size":1463917247,"categoryP":"video","categoryS":"movies","magnet":"?xt=urn:btih:dc2a831b2ae4cb93d5921b47cf80e498060b15a1&amp;dn=Locked+Down-AC3-XviD-DVDRip%5BEng%5D2010+2Lions-Team&amp;tr=udp%3A%2F%2Ftracker.openbittorrent.com%3A80&amp;tr=udp%3A%2F%2Fopen.demonii.com%3A1337&amp;tr=udp%3A%2F%2Ftracker.coppersurfer.tk%3A6969&amp;tr=udp%3A%2F%2Fexodus.desync.com%3A6969","seeders":2,"leechers":0,"uploader":"FatFreddy31","files":-1,"time":1289467219,"description":"Danny, a respected cop, is setup after an investigation goes wrong. While laying low in his new jail cell, Danny is forced to get involved in the inmates underground cage fighting circuit. With the help of Irving, a former mixed martial arts champion, Danny devises a scheme to bring justice and innocence to his family's name, if he can get out of the cage alive.\n &lt;a href=&quot;\nhttp://www.imdb.com/title/tt1597033/&quot; rel=&quot;nofollow&quot; target=&quot;_NEW&quot;&gt;\nhttp://www.imdb.com/title/tt1597033/&lt;/a&gt;\n\nSubtitles (srt) : Dutch, English.\n\nCovers included.\n\nDanny (Tony Schiena), een gerespecteerde agent, wordt erin geluisd nadat een politieonderzoek verkeerd afloopt en hij wordt overgebracht naar een staatsgevangenis. Hij probeert zichzelf rustig te houden in zijn cel en zijn tijd uit te zitten. De gevangenis wordt echter gerund door de maffiabaas Vargas (Vinnie Jones), die illegale kooigevechten houdt in het ketelhuis. Hoewel iedereen hem dood wil hebben ziet Vargas in hem een goede entertainer voor zijn gevechten. Ondertussen krijgt Danny hulp van Irving, een voormalig martial arts kampioen, die hem traint en voorziet van goede raad. Een agente van 'Internal Affairs' probeert Danny's onschuld te bewijzen en hem op vrije voeten te stellen. Als hij tenminste levend uit de kooi kan komen.\n &lt;a href=&quot;\nhttp://www.moviemeter.nl/film/69018&quot; rel=&quot;nofollow&quot; target=&quot;_NEW&quot;&gt;\nhttp://www.moviemeter.nl/film/69018&lt;/a&gt;\n\nOndertitels (srt) : Engels, Nederlands.\n\nHoesjes bijgevoegd. \n\nGeneral\nComplete name                    : Locked Down-AC3-XviD-DVDRip[Eng]2010 2Lions-Team\\Locked Down-AC3-XviD-DVDRip[Eng]2010 2Lions-Team.avi\nFormat                           : AVI\nFormat/Info                      : Audio Video Interleave\nFile size                        : 1.36 GiB\nDuration                         : 1h 38mn\nOverall bit rate                 : 1 974 Kbps\nWriting application              : VirtualDubMod 1.5.4.1 (build 2178/release)\nWriting library                  : VirtualDubMod build 2178/release\n\nVideo\nID                               : 0\nFormat                           : MPEG-4 Visual\nFormat profile                   : Simple@L3\nFormat settings, BVOP            : No\nFormat settings, QPel            : No\nFormat settings, GMC             : No warppoints\nFormat settings, Matrix          : Default (H.263)\nCodec ID                         : XVID\nCodec ID/Hint                    : XviD\nDuration                         : 1h 38mn\nBit rate                         : 1 581 Kbps\nWidth                            : 720 pixels\nHeight                           : 400 pixels\nDisplay aspect ratio             : 16:9\nFrame rate                       : 23.976 fps\nResolution                       : 8 bits\nColorimetry                      : 4:2:0\nScan type                        : Progressive\nBits/(Pixel*Frame)               : 0.229\nStream size                      : 1.09 GiB (80%)\nWriting library                  : XviD 1.1.2 (UTC 2006-11-01)\n\nAudio\nID                               : 1\nFormat                           : AC-3\nFormat/Info                      : Audio Coding 3\nCodec ID                         : 2000\nDuration                         : 1h 38mn\nBit rate mode                    : Constant\nBit rate                         : 384 Kbps\nChannel(s)                       : 6 channels\nChannel positions                : Front: L C R, Surround: L R, LFE\nSampling rate                    : 48.0 KHz\nStream size                      : 271 MiB (19%)\nAlignment                        : Split accross interleaves\nInterleave, duration             : 42 ms (1.00 video frame)\nInterleave, preload duration     : 500 ms\n\nThanks to FGT-Releases for the source, and Dutch subs.Awesome job peeps!\n \nBrought to you by Gollum.\n\nDON T HIT AND RUN Niet gelijk afhaken als de FILM binnen is blijf seeden. \n\nDon`t quit after you finished the download, but keep seeding\n\nThere are fake torrents from uploaders who use our team name.\nThose are not ours, or members from our team.\nWe 2Lions-Team are not responsible for the fake posts on our name\n\nWij 2Lions-Team zijn niet verantwoordelijk voor die zieke FAKE posten die op onze naam worden gedaan\n\nPlease check our site !!!\n\nto the fakers , get a life !!!","torrent":{"xt":"urn:btih:dc2a831b2ae4cb93d5921b47cf80e498060b15a1","amp;dn":"Locked+Down-AC3-XviD-DVDRip%5BEng%5D2010+2Lions-Team","amp;tr":["udp%3A%2F%2Ftracker.openbittorrent.com%3A80","udp%3A%2F%2Fopen.demonii.com%3A1337","udp%3A%2F%2Ftracker.coppersurfer.tk%3A6969","udp%3A%2F%2Fexodus.desync.com%3A6969"],"infoHash":"dc2a831b2ae4cb93d5921b47cf80e498060b15a1","infoHashBuffer":{"type":"Buffer","data":[220,42,131,27,42,228,203,147,213,146,27,71,207,128,228,152,6,11,21,161]},"announce":[],"urlList":[]}}